<svg width="41" height="42" viewBox="0 0 41 42" fill="none" xmlns="http://www.w3.org/2000/svg">
<path d="M20.1333 27.333L18.2006 29.2657L20.1333 31.1984L22.0661 29.2657L20.1333 27.333ZM22.8666 2.7333C22.8666 1.22375 21.6429 0 20.1333 0C18.6237 0 17.4 1.22372 17.4 2.7333H22.8666ZM4.5341 15.5992L18.2006 29.2657L22.0661 25.4003L8.39959 11.7337L4.5341 15.5992ZM22.0661 29.2657L35.7325 15.5992L31.8671 11.7337L18.2006 25.4003L22.0661 29.2657ZM22.8666 27.333V2.7333H17.4V27.333H22.8666Z" fill="#123144"/>
<path d="M1 32.7998V35.5331C1 38.5523 3.44748 40.9997 6.4666 40.9997H33.7996C36.8188 40.9997 39.2662 38.5523 39.2662 35.5331V32.7998" stroke="#123144" stroke-width="2"/>
</svg>
