<svg xmlns="http://www.w3.org/2000/svg" xmlns:xlink="http://www.w3.org/1999/xlink" version="1.1" id="Layer_1" x="0px" y="0px" style="enable-background:new 0 0 841.89 595.28;" xml:space="preserve" viewBox="382.18 183.09 32.89 239.51">
<style type="text/css">
	.st0{fill:#FFFFFF;}
	.st1{fill:#F9D522;}
</style>
<g>
	<path class="st0" d="M410.47,397.13c0.44,0.34,0.93,0.81,1.46,1.41c0.53,0.6,1.03,1.37,1.49,2.32c0.46,0.94,0.85,2.08,1.16,3.41   c0.32,1.33,0.47,2.88,0.47,4.67c0,2.01-0.34,3.85-1.03,5.53c-0.69,1.68-1.68,3.12-2.99,4.32c-1.3,1.2-2.91,2.13-4.81,2.8   c-1.9,0.67-4.08,1-6.53,1h-2.11c-2.43,0-4.6-0.3-6.51-0.9c-1.91-0.6-3.53-1.46-4.84-2.59c-1.32-1.13-2.32-2.5-3.01-4.13   c-0.69-1.62-1.03-3.47-1.03-5.54c0-1.95,0.25-3.65,0.76-5.1c0.51-1.45,1.21-2.67,2.12-3.67s1.99-1.78,3.24-2.35   c1.25-0.57,2.63-0.95,4.12-1.14v5.45c-0.83,0.13-1.6,0.35-2.31,0.66c-0.7,0.31-1.31,0.73-1.82,1.26c-0.51,0.54-0.92,1.19-1.21,1.98   c-0.29,0.78-0.44,1.72-0.44,2.8c0,1.3,0.24,2.44,0.72,3.39c0.48,0.96,1.19,1.76,2.12,2.4c0.93,0.64,2.07,1.11,3.43,1.43   c1.36,0.32,2.9,0.47,4.63,0.47h2.15c1.76,0,3.31-0.19,4.67-0.57c1.35-0.38,2.49-0.93,3.42-1.64c0.92-0.71,1.63-1.57,2.11-2.59   c0.48-1.02,0.73-2.17,0.73-3.46c0-0.95-0.06-1.77-0.19-2.45c-0.12-0.68-0.28-1.26-0.47-1.72s-0.4-0.85-0.63-1.15   c-0.23-0.3-0.44-0.55-0.65-0.74h-6.26v6.59h-4.22v-12.13H410.47z"/>
	<path class="st0" d="M399.46,366.16c2.43,0,4.61,0.32,6.54,0.96c1.93,0.64,3.56,1.53,4.9,2.69c1.34,1.16,2.37,2.55,3.09,4.17   c0.72,1.63,1.08,3.43,1.08,5.41c0,1.96-0.36,3.76-1.08,5.38c-0.72,1.62-1.75,3.03-3.09,4.21c-1.34,1.18-2.97,2.1-4.9,2.75   c-1.93,0.65-4.11,0.98-6.54,0.98h-1.63c-2.43,0-4.61-0.33-6.55-0.98s-3.57-1.56-4.92-2.72c-1.35-1.17-2.38-2.56-3.1-4.19   c-0.72-1.62-1.08-3.42-1.08-5.38c0-1.98,0.36-3.78,1.08-5.42c0.72-1.63,1.75-3.03,3.1-4.2c1.35-1.16,2.99-2.07,4.92-2.7   c1.93-0.64,4.12-0.96,6.55-0.96H399.46z M397.79,371.72c-1.79,0-3.37,0.17-4.74,0.52c-1.37,0.34-2.52,0.85-3.44,1.51   c-0.92,0.66-1.62,1.47-2.1,2.43c-0.48,0.96-0.71,2.05-0.71,3.26c0,1.19,0.24,2.26,0.71,3.21c0.48,0.95,1.18,1.76,2.1,2.43   c0.92,0.67,2.07,1.18,3.44,1.54c1.37,0.36,2.95,0.54,4.74,0.54h1.67c1.79,0,3.37-0.18,4.75-0.54c1.38-0.36,2.53-0.88,3.46-1.55   c0.93-0.67,1.63-1.49,2.11-2.45c0.48-0.96,0.71-2.03,0.71-3.22c0-2.46-0.94-4.35-2.81-5.68c-1.88-1.33-4.61-1.99-8.22-1.99H397.79z   "/>
	<path class="st0" d="M382.63,327.37h21.4c1.83,0,3.44,0.31,4.81,0.93c1.38,0.62,2.53,1.48,3.45,2.56s1.62,2.35,2.08,3.8   c0.46,1.45,0.69,3,0.69,4.66c0,1.71-0.23,3.3-0.69,4.76c-0.46,1.46-1.15,2.72-2.08,3.79s-2.07,1.9-3.45,2.5   c-1.38,0.6-2.98,0.9-4.81,0.9h-21.4v-5.54h21.4c1.14,0,2.13-0.15,2.96-0.45c0.83-0.3,1.51-0.73,2.05-1.29s0.94-1.23,1.2-2.02   c0.26-0.79,0.38-1.68,0.38-2.66s-0.13-1.87-0.38-2.67c-0.26-0.8-0.66-1.47-1.2-2.02c-0.54-0.55-1.23-0.97-2.05-1.27   c-0.83-0.3-1.81-0.45-2.96-0.45h-21.4V327.37z"/>
	<path class="st0" d="M402.73,316.55h11.89v5.56h-31.99v-12.24c0-1.86,0.25-3.51,0.76-4.96c0.51-1.44,1.21-2.66,2.12-3.66   s1.98-1.75,3.23-2.27c1.25-0.52,2.6-0.78,4.07-0.78c1.55,0,2.94,0.26,4.17,0.78c1.23,0.52,2.27,1.28,3.12,2.27s1.5,2.21,1.96,3.66   c0.45,1.44,0.68,3.09,0.68,4.96V316.55z M398.27,316.55v-6.68c0-1.07-0.13-1.99-0.4-2.76c-0.26-0.77-0.64-1.4-1.12-1.9   c-0.48-0.5-1.06-0.86-1.73-1.09c-0.67-0.23-1.4-0.34-2.19-0.34c-0.75,0-1.46,0.11-2.15,0.34c-0.69,0.23-1.3,0.59-1.83,1.09   c-0.54,0.5-0.96,1.13-1.27,1.9c-0.32,0.77-0.47,1.69-0.47,2.76v6.68H398.27z"/>
</g>
<g>
	<path class="st1" d="M410.08,206.69h-7.88v40.47c0,1.97-1.6,3.57-3.57,3.57c-1.97,0-3.57-1.6-3.57-3.57v-40.47h-7.88   c-2.72,0-4.28-3.09-2.67-5.28l13.09-17.8c0.51-0.7,1.56-0.7,2.07,0l13.09,17.8C414.36,203.6,412.8,206.69,410.08,206.69z"/>
</g>
</svg>