<svg xmlns="http://www.w3.org/2000/svg" width="33" height="15" viewBox="0 0 33 15" fill="none">
    <path d="M24.8386 5.3765C25.7532 5.3765 26.4945 6.11784 26.4945 7.0324C26.4945 7.94696 25.7532 8.68831 24.8386 8.68831V5.3765ZM1.65591 8.68831C0.741366 8.68831 0 7.94696 0 7.0324C0 6.11784 0.741366 5.3765 1.65591 5.3765V8.68831ZM24.8386 8.68831H1.65591V5.3765H24.8386V8.68831Z" fill="#123144"/>
    <path d="M32.6466 6.6956L23.6216 0.249087C22.7448 -0.377194 21.5269 0.249567 21.5269 1.32707V12.7377C21.5269 13.8152 22.7448 14.4419 23.6216 13.8157L32.6466 7.36922C32.8778 7.20412 32.8778 6.86069 32.6466 6.6956Z" fill="#123144"/>
</svg>