<svg width="16" height="17" viewBox="0 0 16 17" fill="none" xmlns="http://www.w3.org/2000/svg">
<path d="M8.00008 1.41421L7.29298 0.7071L8.00008 0L8.70718 0.7071L8.00008 1.41421ZM9.00008 10.4142C9.00008 10.9665 8.55238 11.4142 8.00008 11.4142C7.44778 11.4142 7.00008 10.9665 7.00008 10.4142H9.00008ZM2.29297 5.7071L7.29298 0.7071L8.70718 2.12132L3.70719 7.12131L2.29297 5.7071ZM8.70718 0.7071L13.7072 5.7071L12.293 7.12131L7.29298 2.12132L8.70718 0.7071ZM9.00008 1.41421V10.4142H7.00008V1.41421H9.00008Z" fill="white"/>
<path d="M1 12.4141V13.4141C1 14.5187 1.89543 15.4141 3 15.4141H13C14.1046 15.4141 15 14.5187 15 13.4141V12.4141" stroke="white" stroke-width="2"/>
</svg>
